<?xml version='1.0' encoding='utf-8'?>
<!-- Generator: imaengine 6.0   -->
<svg xmlns:xlink="http://www.w3.org/1999/xlink" xmlns="http://www.w3.org/2000/svg" viewBox="0,0,800,600" style="enable-background:new 0 0 800 600;" version="1.1">
<defs>
<mask id="mask" mask-type="alpha">
<g>
<path d="M63.8,249.5L222.4,249.5L222.4,348.1L63.8,348.1L63.8,249.5Z" fill="#000000"/>
</g>
</mask>
<linearGradient y1="248.897" id="LinearGradient" x1="112.705" y2="396.391" x2="222.275" gradientUnits="userSpaceOnUse" gradientTransform="matrix(1 0 0 1 0 0)">
<stop stop-color="#F213A4" offset="0"/>
<stop stop-color="#5204BF" offset="1"/>
</linearGradient>
</defs>
<g id="layer0">
<path d="M378.3,253C372.6,253 367.9,257.6 367.9,263.5C367.9,269.3 372.6,273.9 378.3,273.9C384,273.9 388.7,269.3 388.7,263.5C388.7,257.6 384,253 378.3,253L378.3,253ZM387.4,279.2L369.3,279.2L369.3,341.4L387.4,341.4L387.4,279.2L387.4,279.2ZM263.5,255.3L281.2,255.3L281.2,279.2L294.8,279.2L294.8,295.8L281.2,295.8L281.2,317.7C281.2,320.9 283.7,323.5 286.8,323.5L294.7,323.5L294.7,341.2L286.8,341.2C274,341.2 263.5,330.7 263.5,317.6L263.5,295.7L255.3,295.7L255.3,279L263.5,279L263.5,255.3L263.5,255.3ZM337.9,277.8C329.7,277.8 323.2,281.3 320.7,286.7L320.7,255.3L302.6,255.3L302.6,341.3L320.7,341.3L320.7,306.4C320.7,299.1 325.4,294 332,294C338.7,294 342.5,298.4 342.5,305.8L342.5,341.4L360.6,341.4L360.6,303.5C360.6,287.4 352.4,277.8 337.9,277.8L337.9,277.8ZM413.3,279L413.3,287.5C416,281.3 422.7,277.7 431,277.6C432.3,277.6 433.9,277.7 435.8,277.9L435.8,295.2C434,294.9 431.9,294.6 429.8,294.6C419.4,294.6 413.4,300.5 413.4,310.8L413.4,341.2L395.3,341.2L395.3,279L413.3,279L413.3,279ZM486.8,287.2C485,281.8 477.8,278 468.6,278C459.9,278 452.6,281.1 446.8,287.4C441.1,293.5 438.1,301.3 438.1,310.3C438.1,319.3 441.1,326.9 446.8,333.3C452.6,339.4 459.9,342.5 468.6,342.5C477.8,342.5 485,338.7 486.8,333.3L486.8,341.5L504.9,341.5L504.9,255.4L486.8,255.4L486.8,287.2L486.8,287.2ZM483.1,321.3C480,324.3 476.3,325.7 471.8,325.7C467.5,325.7 463.7,324.2 460.7,321.3C457.6,318.2 456.1,314.5 456.1,310.2C456.1,305.9 457.6,302.2 460.7,299.2C463.8,296.1 467.4,294.6 471.8,294.6C476.4,294.6 480.1,296.1 483.1,299.2C486.3,302.2 487.9,305.9 487.9,310.2C487.9,314.5 486.3,318.2 483.1,321.3L483.1,321.3ZM557.3,279.4L573.7,309L584.8,279.2L602.6,279.2L577.2,345L557.2,309.2L537.2,345L512,279.2L529.8,279.2L540.8,309L557.3,279.4L557.3,279.4ZM632.4,277.7C623,277.7 615.2,280.7 609,286.7C603,292.6 599.9,300.4 599.9,310.1L599.9,310.7C599.9,320.4 603,328.3 609,334.1C615.3,339.9 623.3,342.9 633.3,342.9C642.7,342.9 650.3,341.1 656.1,337.2L656.1,321.1C650.4,325.1 643.1,327.1 634.3,327.1C624.7,327.1 618.4,322.4 618.1,315L663.2,315C663.4,313.2 663.5,311.1 663.5,309C663.5,300.1 660.5,292.7 654.8,286.7C649.2,280.7 641.6,277.7 632.4,277.7L632.4,277.7ZM618.2,303.2C618.3,300.3 619.8,297.9 622.5,295.9C625.4,293.9 628.5,292.9 632.4,292.9C639.6,292.9 645.2,297.6 645.2,303.2L618.2,303.2L618.2,303.2ZM706.8,278C715.5,278 722.8,281.1 728.5,287.4C734.3,293.6 737.3,301.1 737.3,310.1C737.3,319.1 734.3,326.7 728.5,333.1C722.8,339.2 715.5,342.3 706.8,342.3C697.6,342.3 690.4,338.5 688.6,333.1L688.6,341.3L670.5,341.3L670.5,255.3L688.6,255.3L688.6,287.3C690.4,281.8 697.6,278 706.8,278L706.8,278ZM703.5,325.7C707.8,325.7 711.5,324.3 714.6,321.3C717.7,318.2 719.2,314.5 719.2,310.2C719.2,305.9 717.7,302.2 714.6,299.2C711.6,296.1 707.9,294.6 703.5,294.6C699.1,294.6 695.3,296.1 692.1,299.2C689,302.2 687.4,305.9 687.4,310.2C687.4,314.5 689,318.2 692.1,321.3C695.2,324.2 698.9,325.7 703.5,325.7L703.5,325.7Z" fill="#75787B"/>
<g mask="url(#mask)">
<path d="M64.2,257.8C62.6,253.8 65.6,249.5 69.9,249.5L96.7,249.5C99.2,249.5 101.4,251 102.4,253.3L123.7,306.4C124.3,307.8 124.3,309.4 123.7,310.9L110.3,344.3C108.3,349.4 101,349.4 98.9,344.3L64.2,257.8L64.2,257.8ZM115.9,257.6C114.5,253.6 117.4,249.5 121.6,249.5L145,249.5C147.6,249.5 149.9,251.1 150.7,253.5L170.1,306.6C170.6,307.9 170.6,309.4 170.1,310.7L158.5,342.6C156.6,347.9 148.9,347.9 147,342.6L115.9,257.6L115.9,257.6ZM168.3,249.5C164,249.5 161,253.8 162.6,257.8L197.3,344.3C199.3,349.4 206.6,349.4 208.7,344.3L222.1,310.9C222.7,309.4 222.7,307.8 222.1,306.4L200.8,253.3C199.9,251 197.6,249.5 195.1,249.5L168.3,249.5L168.3,249.5Z" fill="url(#LinearGradient)"/>
</g>
</g>
</svg>
