<?xml version='1.0' encoding='utf-8'?>
<!-- Generator: imaengine 6.0   -->
<svg xmlns:xlink="http://www.w3.org/1999/xlink" xmlns="http://www.w3.org/2000/svg" viewBox="0,0,561,132" style="enable-background:new 0 0 561 132;" version="1.1">
<defs/>
<g id="layer0">
<path d="M561,12C561,18.6274 555.627,24 549,24C542.373,24 537,18.6274 537,12C537,5.37259 542.373,0 549,0C555.627,0 561,5.37259 561,12L561,12Z" fill="#8C8D8D"/>
<path d="M414,105C418.971,105 423,100.971 423,96L423,60C423,55.0294 427.029,51 432,51L450,51C454.971,51 459,55.0294 459,60L459,96C459,100.971 463.029,105 468,105C472.971,105 477,100.971 477,96L477,60C477,55.0294 481.029,51 486,51L504,51C508.971,51 513,55.0294 513,60L513,96C513,100.971 517.029,105 522,105L549,105C553.971,105 558,100.971 558,96L558,42C558,37.0294 553.971,33 549,33C544.029,33 540,37.0294 540,42L540,82.5C540,84.9853 537.985,87 535.5,87C533.015,87 531,84.9853 531,82.5L531,42C531,37.0294 526.971,33 522,33L414,33C409.029,33 405,37.0294 405,42L405,96C405,100.971 409.029,105 414,105L414,105Z" fill="#8C8D8D"/>
<path d="M27,87C22.0294,87 18,82.9706 18,78L18,42C18,37.0294 13.9706,33 9,33C4.02943,33 0,37.0294 0,42L0,96C0,100.971 4.02943,105 9,105L117,105C121.971,105 126,100.971 126,96L126,60C126,55.0294 130.029,51 135,51L238.5,51C240.985,51 243,53.0147 243,55.5C243,57.9853 240.985,60 238.5,60L144,60C139.029,60 135,64.0294 135,69L135,96C135,100.971 139.029,105 144,105L252,105C256.971,105 261,100.971 261,96L261,42C261,37.0294 256.971,33 252,33L117,33C112.029,33 108,37.0294 108,42L108,78C108,82.9706 103.971,87 99,87L81,87C76.0294,87 72,82.9706 72,78L72,42C72,37.0294 67.9706,33 63,33C58.0294,33 54,37.0294 54,42L54,78C54,82.9706 49.9706,87 45,87L27,87L27,87ZM243,82.5C243,84.9853 240.985,87 238.5,87L157.5,87C155.015,87 153,84.9853 153,82.5C153,80.0147 155.015,78 157.5,78L238.5,78C240.985,78 243,80.0147 243,82.5L243,82.5Z" fill-rule="evenodd" fill="#8C8D8D"/>
<path d="M270,96C270,100.971 274.029,105 279,105L373.5,105C375.985,105 378,107.015 378,109.5C378,111.985 375.985,114 373.5,114L279,114C274.029,114 270,118.029 270,123C270,127.971 274.029,132 279,132L387,132C391.971,132 396,127.971 396,123L396,42C396,37.0294 391.971,33 387,33L279,33C274.029,33 270,37.0294 270,42L270,96L270,96ZM297,51C292.029,51 288,55.0294 288,60L288,78C288,82.9706 292.029,87 297,87L369,87C373.971,87 378,82.9706 378,78L378,60C378,55.0294 373.971,51 369,51L297,51L297,51Z" fill-rule="evenodd" fill="#8C8D8D"/>
</g>
</svg>
